<mxfile host="app.diagrams.net" modified="2021-04-09T08:50:04.067Z" agent="5.0 (Windows NT 10.0; Win64; x64) AppleWebKit/537.36 (KHTML, like Gecko) Chrome/89.0.4389.114 Safari/537.36" etag="B9yna5LxN_fPoUvp_-1l" version="14.5.8" type="github">
  <diagram id="BoKmz2fNyvjYAWDOAHoq" name="第 1 页">
    <mxGraphModel dx="1504" dy="579" grid="1" gridSize="10" guides="1" tooltips="1" connect="1" arrows="1" fold="1" page="1" pageScale="1" pageWidth="827" pageHeight="1169" math="0" shadow="0">
      <root>
        <mxCell id="0" />
        <mxCell id="1" parent="0" />
        <mxCell id="aMXUTOQtjvT4EAs5r6SL-8" style="edgeStyle=orthogonalEdgeStyle;rounded=0;orthogonalLoop=1;jettySize=auto;html=1;entryX=0.5;entryY=0;entryDx=0;entryDy=0;" edge="1" parent="1" source="aMXUTOQtjvT4EAs5r6SL-2" target="aMXUTOQtjvT4EAs5r6SL-7">
          <mxGeometry relative="1" as="geometry">
            <mxPoint x="150" y="140" as="targetPoint" />
          </mxGeometry>
        </mxCell>
        <mxCell id="aMXUTOQtjvT4EAs5r6SL-2" value="开始" style="rounded=1;whiteSpace=wrap;html=1;" vertex="1" parent="1">
          <mxGeometry x="90" y="20" width="120" height="60" as="geometry" />
        </mxCell>
        <mxCell id="aMXUTOQtjvT4EAs5r6SL-10" value="" style="edgeStyle=orthogonalEdgeStyle;rounded=0;orthogonalLoop=1;jettySize=auto;html=1;" edge="1" parent="1" source="aMXUTOQtjvT4EAs5r6SL-7" target="aMXUTOQtjvT4EAs5r6SL-9">
          <mxGeometry relative="1" as="geometry" />
        </mxCell>
        <mxCell id="aMXUTOQtjvT4EAs5r6SL-7" value="&lt;span&gt;进入富文本编辑器&lt;/span&gt;" style="rounded=0;whiteSpace=wrap;html=1;" vertex="1" parent="1">
          <mxGeometry x="90" y="120" width="120" height="60" as="geometry" />
        </mxCell>
        <mxCell id="aMXUTOQtjvT4EAs5r6SL-12" value="" style="edgeStyle=orthogonalEdgeStyle;rounded=0;orthogonalLoop=1;jettySize=auto;html=1;" edge="1" parent="1" source="aMXUTOQtjvT4EAs5r6SL-9" target="aMXUTOQtjvT4EAs5r6SL-11">
          <mxGeometry relative="1" as="geometry" />
        </mxCell>
        <mxCell id="aMXUTOQtjvT4EAs5r6SL-9" value="填写分享内容" style="whiteSpace=wrap;html=1;rounded=0;" vertex="1" parent="1">
          <mxGeometry x="90" y="240" width="120" height="60" as="geometry" />
        </mxCell>
        <mxCell id="aMXUTOQtjvT4EAs5r6SL-14" value="" style="edgeStyle=orthogonalEdgeStyle;rounded=0;orthogonalLoop=1;jettySize=auto;html=1;" edge="1" parent="1" source="aMXUTOQtjvT4EAs5r6SL-11" target="aMXUTOQtjvT4EAs5r6SL-13">
          <mxGeometry relative="1" as="geometry" />
        </mxCell>
        <mxCell id="aMXUTOQtjvT4EAs5r6SL-11" value="选择发布分享" style="whiteSpace=wrap;html=1;rounded=0;" vertex="1" parent="1">
          <mxGeometry x="90" y="350" width="120" height="60" as="geometry" />
        </mxCell>
        <mxCell id="aMXUTOQtjvT4EAs5r6SL-19" value="" style="edgeStyle=orthogonalEdgeStyle;rounded=0;orthogonalLoop=1;jettySize=auto;html=1;" edge="1" parent="1" source="aMXUTOQtjvT4EAs5r6SL-13" target="aMXUTOQtjvT4EAs5r6SL-18">
          <mxGeometry relative="1" as="geometry" />
        </mxCell>
        <mxCell id="aMXUTOQtjvT4EAs5r6SL-13" value="弹出分享&lt;br&gt;选项弹窗" style="whiteSpace=wrap;html=1;rounded=0;" vertex="1" parent="1">
          <mxGeometry x="260" y="350" width="120" height="60" as="geometry" />
        </mxCell>
        <mxCell id="aMXUTOQtjvT4EAs5r6SL-21" value="" style="edgeStyle=orthogonalEdgeStyle;rounded=0;orthogonalLoop=1;jettySize=auto;html=1;" edge="1" parent="1" source="aMXUTOQtjvT4EAs5r6SL-18" target="aMXUTOQtjvT4EAs5r6SL-20">
          <mxGeometry relative="1" as="geometry" />
        </mxCell>
        <mxCell id="aMXUTOQtjvT4EAs5r6SL-18" value="填写分享类型、&lt;br&gt;标签" style="whiteSpace=wrap;html=1;rounded=0;" vertex="1" parent="1">
          <mxGeometry x="430" y="350" width="120" height="60" as="geometry" />
        </mxCell>
        <mxCell id="aMXUTOQtjvT4EAs5r6SL-23" style="edgeStyle=orthogonalEdgeStyle;rounded=0;orthogonalLoop=1;jettySize=auto;html=1;entryX=1;entryY=0.25;entryDx=0;entryDy=0;" edge="1" parent="1" source="aMXUTOQtjvT4EAs5r6SL-20" target="aMXUTOQtjvT4EAs5r6SL-9">
          <mxGeometry relative="1" as="geometry">
            <Array as="points">
              <mxPoint x="670" y="255" />
            </Array>
          </mxGeometry>
        </mxCell>
        <mxCell id="aMXUTOQtjvT4EAs5r6SL-24" value="否" style="edgeLabel;html=1;align=center;verticalAlign=middle;resizable=0;points=[];" vertex="1" connectable="0" parent="aMXUTOQtjvT4EAs5r6SL-23">
          <mxGeometry x="0.1919" y="2" relative="1" as="geometry">
            <mxPoint as="offset" />
          </mxGeometry>
        </mxCell>
        <mxCell id="aMXUTOQtjvT4EAs5r6SL-31" value="" style="edgeStyle=orthogonalEdgeStyle;rounded=0;orthogonalLoop=1;jettySize=auto;html=1;" edge="1" parent="1" source="aMXUTOQtjvT4EAs5r6SL-20" target="aMXUTOQtjvT4EAs5r6SL-25">
          <mxGeometry relative="1" as="geometry" />
        </mxCell>
        <mxCell id="aMXUTOQtjvT4EAs5r6SL-32" value="是" style="edgeLabel;html=1;align=center;verticalAlign=middle;resizable=0;points=[];" vertex="1" connectable="0" parent="aMXUTOQtjvT4EAs5r6SL-31">
          <mxGeometry x="-0.2111" y="-3" relative="1" as="geometry">
            <mxPoint as="offset" />
          </mxGeometry>
        </mxCell>
        <mxCell id="aMXUTOQtjvT4EAs5r6SL-20" value="分享是否发布" style="rhombus;whiteSpace=wrap;html=1;rounded=0;" vertex="1" parent="1">
          <mxGeometry x="620" y="340" width="100" height="80" as="geometry" />
        </mxCell>
        <mxCell id="aMXUTOQtjvT4EAs5r6SL-33" value="" style="edgeStyle=orthogonalEdgeStyle;rounded=0;orthogonalLoop=1;jettySize=auto;html=1;" edge="1" parent="1" source="aMXUTOQtjvT4EAs5r6SL-25" target="aMXUTOQtjvT4EAs5r6SL-29">
          <mxGeometry relative="1" as="geometry" />
        </mxCell>
        <mxCell id="aMXUTOQtjvT4EAs5r6SL-25" value="确认发布" style="whiteSpace=wrap;html=1;rounded=0;" vertex="1" parent="1">
          <mxGeometry x="610" y="470" width="120" height="60" as="geometry" />
        </mxCell>
        <mxCell id="aMXUTOQtjvT4EAs5r6SL-29" value="结束" style="rounded=1;whiteSpace=wrap;html=1;" vertex="1" parent="1">
          <mxGeometry x="610" y="555" width="120" height="60" as="geometry" />
        </mxCell>
        <mxCell id="aMXUTOQtjvT4EAs5r6SL-34" style="edgeStyle=orthogonalEdgeStyle;rounded=0;orthogonalLoop=1;jettySize=auto;html=1;entryX=0.5;entryY=0;entryDx=0;entryDy=0;" edge="1" parent="1" source="aMXUTOQtjvT4EAs5r6SL-35" target="aMXUTOQtjvT4EAs5r6SL-37">
          <mxGeometry relative="1" as="geometry">
            <mxPoint x="110" y="770" as="targetPoint" />
          </mxGeometry>
        </mxCell>
        <mxCell id="aMXUTOQtjvT4EAs5r6SL-35" value="开始" style="rounded=1;whiteSpace=wrap;html=1;" vertex="1" parent="1">
          <mxGeometry x="50" y="650" width="120" height="60" as="geometry" />
        </mxCell>
        <mxCell id="aMXUTOQtjvT4EAs5r6SL-36" value="" style="edgeStyle=orthogonalEdgeStyle;rounded=0;orthogonalLoop=1;jettySize=auto;html=1;" edge="1" parent="1" source="aMXUTOQtjvT4EAs5r6SL-37" target="aMXUTOQtjvT4EAs5r6SL-39">
          <mxGeometry relative="1" as="geometry" />
        </mxCell>
        <mxCell id="aMXUTOQtjvT4EAs5r6SL-37" value="&lt;span&gt;点击修改&lt;/span&gt;" style="rounded=0;whiteSpace=wrap;html=1;" vertex="1" parent="1">
          <mxGeometry x="50" y="750" width="120" height="60" as="geometry" />
        </mxCell>
        <mxCell id="aMXUTOQtjvT4EAs5r6SL-38" value="" style="edgeStyle=orthogonalEdgeStyle;rounded=0;orthogonalLoop=1;jettySize=auto;html=1;" edge="1" parent="1" source="aMXUTOQtjvT4EAs5r6SL-39" target="aMXUTOQtjvT4EAs5r6SL-41">
          <mxGeometry relative="1" as="geometry" />
        </mxCell>
        <mxCell id="aMXUTOQtjvT4EAs5r6SL-39" value="进入富文本&lt;br&gt;编辑分享内容状态" style="whiteSpace=wrap;html=1;rounded=0;" vertex="1" parent="1">
          <mxGeometry x="50" y="870" width="120" height="60" as="geometry" />
        </mxCell>
        <mxCell id="aMXUTOQtjvT4EAs5r6SL-40" value="" style="edgeStyle=orthogonalEdgeStyle;rounded=0;orthogonalLoop=1;jettySize=auto;html=1;entryX=0;entryY=0.5;entryDx=0;entryDy=0;" edge="1" parent="1" source="aMXUTOQtjvT4EAs5r6SL-41" target="aMXUTOQtjvT4EAs5r6SL-50">
          <mxGeometry relative="1" as="geometry">
            <mxPoint x="219.99999999999977" y="1009.9999999999998" as="targetPoint" />
          </mxGeometry>
        </mxCell>
        <mxCell id="aMXUTOQtjvT4EAs5r6SL-41" value="修改分享内容" style="whiteSpace=wrap;html=1;rounded=0;" vertex="1" parent="1">
          <mxGeometry x="50" y="980" width="120" height="60" as="geometry" />
        </mxCell>
        <mxCell id="aMXUTOQtjvT4EAs5r6SL-46" style="edgeStyle=orthogonalEdgeStyle;rounded=0;orthogonalLoop=1;jettySize=auto;html=1;entryX=1;entryY=0.25;entryDx=0;entryDy=0;" edge="1" parent="1" source="aMXUTOQtjvT4EAs5r6SL-50" target="aMXUTOQtjvT4EAs5r6SL-39">
          <mxGeometry relative="1" as="geometry">
            <Array as="points">
              <mxPoint x="320" y="885" />
            </Array>
          </mxGeometry>
        </mxCell>
        <mxCell id="aMXUTOQtjvT4EAs5r6SL-47" value="否" style="edgeLabel;html=1;align=center;verticalAlign=middle;resizable=0;points=[];" vertex="1" connectable="0" parent="aMXUTOQtjvT4EAs5r6SL-46">
          <mxGeometry x="0.1919" y="2" relative="1" as="geometry">
            <mxPoint as="offset" />
          </mxGeometry>
        </mxCell>
        <mxCell id="aMXUTOQtjvT4EAs5r6SL-48" value="" style="edgeStyle=orthogonalEdgeStyle;rounded=0;orthogonalLoop=1;jettySize=auto;html=1;" edge="1" parent="1" source="aMXUTOQtjvT4EAs5r6SL-50" target="aMXUTOQtjvT4EAs5r6SL-52">
          <mxGeometry relative="1" as="geometry" />
        </mxCell>
        <mxCell id="aMXUTOQtjvT4EAs5r6SL-49" value="是" style="edgeLabel;html=1;align=center;verticalAlign=middle;resizable=0;points=[];" vertex="1" connectable="0" parent="aMXUTOQtjvT4EAs5r6SL-48">
          <mxGeometry x="-0.2111" y="-3" relative="1" as="geometry">
            <mxPoint as="offset" />
          </mxGeometry>
        </mxCell>
        <mxCell id="aMXUTOQtjvT4EAs5r6SL-50" value="是否保存" style="rhombus;whiteSpace=wrap;html=1;rounded=0;" vertex="1" parent="1">
          <mxGeometry x="270" y="970" width="100" height="80" as="geometry" />
        </mxCell>
        <mxCell id="aMXUTOQtjvT4EAs5r6SL-51" value="" style="edgeStyle=orthogonalEdgeStyle;rounded=0;orthogonalLoop=1;jettySize=auto;html=1;" edge="1" parent="1" source="aMXUTOQtjvT4EAs5r6SL-52" target="aMXUTOQtjvT4EAs5r6SL-53">
          <mxGeometry relative="1" as="geometry" />
        </mxCell>
        <mxCell id="aMXUTOQtjvT4EAs5r6SL-52" value="确认修改" style="whiteSpace=wrap;html=1;rounded=0;" vertex="1" parent="1">
          <mxGeometry x="430" y="980" width="120" height="60" as="geometry" />
        </mxCell>
        <mxCell id="aMXUTOQtjvT4EAs5r6SL-53" value="结束" style="rounded=1;whiteSpace=wrap;html=1;" vertex="1" parent="1">
          <mxGeometry x="590" y="980" width="120" height="60" as="geometry" />
        </mxCell>
      </root>
    </mxGraphModel>
  </diagram>
</mxfile>
